<svg xmlns="http://www.w3.org/2000/svg" viewBox="0 0 128 120" width="128" height="120" fill="none">
  <g stroke-linejoin="round" stroke-linecap="round">
    <path d="M14 56 L64 80 L114 56 L114 30 L64 6 L14 30 Z" fill="#68484a" stroke="#1b2630" stroke-width="3"/>
    <path d="M14 30 L64 54 L64 80 L14 56 Z" fill="#3c4d5b" opacity="0.75"/>
    <path d="M114 30 L64 54 L64 80 L114 56 Z" fill="#2f3e4b" opacity="0.8"/>
    <path d="M14 30 L64 6 L114 30 L64 54 Z" fill="#7f929f" opacity="0.55"/>
    <path d="M64 54 L64 79" stroke="#1b2630" stroke-width="2" opacity="0.6"/>
    <path d="M35 37 L49 50 L42 57 L59 70 M91 38 L82 48 L94 56" stroke="#1b2630" stroke-width="4"/>
    <path d="M22 53 L38 61" stroke="#ff7a63" stroke-width="3"/>
  </g>
</svg>
