<svg xmlns="http://www.w3.org/2000/svg" viewBox="0 0 128 120" width="128" height="120" fill="none">
  <g stroke-linejoin="round" stroke-linecap="round">
    <path d="M14 56 L64 80 L114 56 L114 30 L64 6 L14 30 Z" fill="#566a7c" stroke="#1b2630" stroke-width="3"/>
    <path d="M14 30 L64 54 L64 80 L14 56 Z" fill="#3c4d5b" opacity="0.75"/>
    <path d="M114 30 L64 54 L64 80 L114 56 Z" fill="#2f3e4b" opacity="0.8"/>
    <path d="M14 30 L64 6 L114 30 L64 54 Z" fill="#7f929f" opacity="0.55"/>
    <path d="M64 54 L64 79" stroke="#1b2630" stroke-width="2" opacity="0.6"/>
    <path d="M23 41 L58 58 M70 58 L105 41 M23 54 L58 71 M70 71 L105 54" stroke="#b4c3ce" stroke-width="2" opacity="0.7"/>
    <circle cx="45" cy="52" r="2.5" fill="#27333e"/><circle cx="83" cy="52" r="2.5" fill="#27333e"/>
  </g>
</svg>
