<svg width="128" height="120" viewBox="0 0 128 120" xmlns="http://www.w3.org/2000/svg">
  <polygon points="64,14 114,40 64,66 14,40" fill="#815245"/>
  <polygon points="14,40 64,66 64,106 14,80" fill="#5c342c"/>
  <polygon points="114,40 64,66 64,106 114,80" fill="#4f2c25"/>
  <polyline points="64,14 114,40 64,66 14,40 64,14" fill="none" stroke="#9e6d5c" stroke-width="1.5"/>
  <g stroke="#b98672" stroke-width="1" opacity="0.45">
    <line x1="20" y1="48" x2="62" y2="70"/>
    <line x1="18" y1="58" x2="62" y2="81"/>
    <line x1="16" y1="68" x2="62" y2="92"/>
    <line x1="66" y1="70" x2="108" y2="48"/>
    <line x1="66" y1="81" x2="110" y2="58"/>
    <line x1="66" y1="92" x2="112" y2="68"/>
  </g>
</svg>
