<svg xmlns="http://www.w3.org/2000/svg" viewBox="0 0 128 120" width="128" height="120" fill="none">
  <g stroke-linejoin="round" stroke-linecap="round">
    <path d="M14 56 L64 80 L114 56 L114 30 L64 6 L14 30 Z" fill="#4a5b66" stroke="#1b2630" stroke-width="3"/>
    <path d="M14 30 L64 54 L64 80 L14 56 Z" fill="#3c4d5b" opacity="0.75"/>
    <path d="M114 30 L64 54 L64 80 L114 56 Z" fill="#2f3e4b" opacity="0.8"/>
    <path d="M14 30 L64 6 L114 30 L64 54 Z" fill="#7f929f" opacity="0.55"/>
    <path d="M64 54 L64 79" stroke="#1b2630" stroke-width="2" opacity="0.6"/>
    <path d="M30 42 L58 56 L58 70 L30 56 Z M70 56 L98 42 L98 56 L70 70 Z" fill="#17212a"/>
    <path d="M34 45 L54 55 M34 52 L54 62 M74 55 L94 45 M74 62 L94 52" stroke="#b8c9d0" stroke-width="2"/>
  </g>
</svg>
