<svg xmlns="http://www.w3.org/2000/svg" viewBox="0 0 128 120" width="128" height="120" fill="none">
  <g stroke-linejoin="round" stroke-linecap="round">
    <path d="M14 56 L64 80 L114 56 L114 30 L64 6 L14 30 Z" fill="#37566a" stroke="#1b2630" stroke-width="3"/>
    <path d="M14 30 L64 54 L64 80 L14 56 Z" fill="#3c4d5b" opacity="0.75"/>
    <path d="M114 30 L64 54 L64 80 L114 56 Z" fill="#2f3e4b" opacity="0.8"/>
    <path d="M14 30 L64 6 L114 30 L64 54 Z" fill="#7f929f" opacity="0.55"/>
    <path d="M64 54 L64 79" stroke="#1b2630" stroke-width="2" opacity="0.6"/>
    <path d="M32 44 L57 56 L57 68 L32 56 Z M71 56 L96 44 L96 56 L71 68 Z" fill="#173240" stroke="#34d9ef" stroke-width="2"/>
    <path d="M39 55 L50 60 M78 60 L89 55" stroke="#a6fbff" stroke-width="3"/>
  </g>
</svg>
