<svg width="128" height="120" viewBox="0 0 128 120" xmlns="http://www.w3.org/2000/svg">
  <polygon points="64,14 114,40 64,66 14,40" fill="#8f4f3d"/>
  <polygon points="14,40 64,66 64,106 14,80" fill="#6f382d"/>
  <polygon points="114,40 64,66 64,106 114,80" fill="#5e2f26"/>
  <polyline points="64,14 114,40 64,66 14,40 64,14" fill="none" stroke="#c88a70" stroke-width="1.4"/>
  <g stroke="#d8b19d" stroke-width="1" opacity="0.75">
    <line x1="20" y1="49" x2="62" y2="71"/>
    <line x1="18" y1="59" x2="62" y2="82"/>
    <line x1="16" y1="69" x2="62" y2="93"/>
    <line x1="66" y1="71" x2="108" y2="49"/>
    <line x1="66" y1="82" x2="110" y2="59"/>
    <line x1="66" y1="93" x2="112" y2="69"/>
  </g>
  <g stroke="#b67b66" stroke-width="1" opacity="0.55">
    <line x1="33" y1="56" x2="33" y2="87"/>
    <line x1="48" y1="64" x2="48" y2="96"/>
    <line x1="80" y1="96" x2="80" y2="64"/>
    <line x1="95" y1="87" x2="95" y2="56"/>
  </g>
</svg>
