<svg width="128" height="120" viewBox="0 0 128 120" xmlns="http://www.w3.org/2000/svg">
  <polygon points="64,14 114,40 64,66 14,40" fill="#4c5c67"/>
  <polygon points="14,40 64,66 64,106 14,80" fill="#2c3740"/>
  <polygon points="114,40 64,66 64,106 114,80" fill="#243039"/>
  <polyline points="64,14 114,40 64,66 14,40 64,14" fill="none" stroke="#8da4b5" stroke-width="1.5"/>
  <g stroke="#a9c4d8" stroke-width="1.2" opacity="0.65">
    <line x1="23" y1="46" x2="23" y2="79"/>
    <line x1="33" y1="51" x2="33" y2="84"/>
    <line x1="43" y1="56" x2="43" y2="89"/>
    <line x1="85" y1="89" x2="85" y2="56"/>
    <line x1="95" y1="84" x2="95" y2="51"/>
    <line x1="105" y1="79" x2="105" y2="46"/>
  </g>
</svg>
