<svg width="128" height="120" viewBox="0 0 128 120" xmlns="http://www.w3.org/2000/svg">
  <polygon points="64,14 114,40 64,66 14,40" fill="#31424e"/>
  <polygon points="14,40 64,66 64,106 14,80" fill="#0f151a"/>
  <polygon points="114,40 64,66 64,106 114,80" fill="#10171c"/>
  <polyline points="64,14 114,40 64,66 14,40 64,14" fill="none" stroke="#8fb2c8" stroke-width="1.5"/>
  <g stroke="#cbe6f7" stroke-width="1.2" opacity="0.9">
    <line x1="22" y1="47" x2="22" y2="79"/>
    <line x1="32" y1="52" x2="32" y2="84"/>
    <line x1="42" y1="57" x2="42" y2="89"/>
    <line x1="86" y1="89" x2="86" y2="57"/>
    <line x1="96" y1="84" x2="96" y2="52"/>
    <line x1="106" y1="79" x2="106" y2="47"/>
  </g>
  <g stroke="#070a0d" stroke-width="2.3" opacity="0.85">
    <line x1="27" y1="49" x2="27" y2="81"/>
    <line x1="37" y1="54" x2="37" y2="86"/>
    <line x1="91" y1="86" x2="91" y2="54"/>
    <line x1="101" y1="81" x2="101" y2="49"/>
  </g>
</svg>
