<svg width="128" height="120" viewBox="0 0 128 120" xmlns="http://www.w3.org/2000/svg">
  <polygon points="64,14 114,40 64,66 14,40" fill="#5f7489"/>
  <polygon points="14,40 64,66 64,106 14,80" fill="#44586b"/>
  <polygon points="114,40 64,66 64,106 114,80" fill="#3a4d5f"/>
  <polyline points="64,14 114,40 64,66 14,40 64,14" fill="none" stroke="#b4c7d8" stroke-width="1.5"/>
  <line x1="20" y1="72" x2="108" y2="72" stroke="#9ab2c7" stroke-width="2" opacity="0.8"/>
  <g stroke="#7f95aa" stroke-width="1" opacity="0.7">
    <line x1="25" y1="49" x2="62" y2="68"/>
    <line x1="66" y1="68" x2="103" y2="49"/>
  </g>
  <g fill="#d6e2ec" opacity="0.85">
    <circle cx="31" cy="61" r="1.7"/>
    <circle cx="47" cy="69" r="1.7"/>
    <circle cx="81" cy="69" r="1.7"/>
    <circle cx="97" cy="61" r="1.7"/>
    <circle cx="37" cy="86" r="1.7"/>
    <circle cx="91" cy="86" r="1.7"/>
  </g>
</svg>
